{"glyphs":{":":{"x_min":0,"x_max":333,"ha":333,"o":"m 185 45 q 185 21 168 3 q 151 -14 126 -14 q 101 -14 84 3 q 67 21 67 45 q 67 70 84 87 q 101 104 126 104 q 151 104 168 87 q 185 70 185 45 z m 254 410 q 254 386 237 368 q 220 351 195 351 q 169 351 153 368 q 136 386 136 410 q 136 435 153 452 q 170 469 195 469 q 220 469 237 452 q 254 435 254 410 z"},"$":{"x_min":0,"x_max":500,"ha":500,"o":"m 37 181 l 69 181 l 69 88 q 87 62 122 46 q 157 31 197 30 l 247 312 q 182 344 155 367 q 128 389 113 417 q 98 445 98 483 q 98 568 151 613 q 205 659 309 662 l 320 724 l 360 724 l 349 662 q 418 660 484 644 l 460 507 l 428 507 l 426 591 q 396 615 341 620 l 300 384 q 371 346 398 322 q 426 298 442 269 q 459 240 459 202 q 459 107 402 52 q 344 -2 230 -9 l 219 -76 l 179 -76 l 190 -10 q 81 -8 12 36 z m 372 185 q 372 209 363 227 q 354 246 337 260 q 320 275 284 293 l 238 32 q 304 41 338 80 q 372 119 372 185 z m 183 500 q 183 471 201 448 q 220 424 263 402 l 301 620 q 245 616 214 585 q 183 554 183 500 z"},"?":{"x_min":0,"x_max":500,"ha":500,"o":"m 245 171 l 206 171 l 222 334 l 294 348 q 351 359 378 398 q 405 438 405 513 q 405 621 308 621 q 278 621 247 610 q 216 600 199 586 l 174 506 l 142 506 l 157 630 q 235 662 313 662 q 492 662 492 519 q 492 345 303 304 l 274 298 z m 266 45 q 266 21 249 3 q 232 -14 208 -14 q 182 -14 165 3 q 148 21 148 45 q 148 70 166 87 q 183 104 208 104 q 232 104 249 87 q 266 70 266 45 z"},"<":{"x_min":0,"x_max":675,"ha":675,"o":"m 113 320 l 113 344 l 579 573 l 579 523 l 184 332 l 579 141 l 579 91 z"},"'":{"x_min":0,"x_max":214,"ha":214,"o":"m 131 655 l 228 655 l 156 420 l 120 420 z"},"=":{"x_min":0,"x_max":675,"ha":675,"o":"m 579 257 l 579 207 l 114 207 l 114 257 z m 579 457 l 579 407 l 114 407 l 114 457 z"},"a":{"x_min":0,"x_max":500,"ha":500,"o":"m 385 34 l 440 22 l 437 0 l 297 0 l 312 76 q 229 -10 161 -10 q 102 -10 66 33 q 30 77 30 153 q 30 238 67 313 q 104 387 167 429 q 229 471 303 471 q 362 471 414 450 l 436 467 l 462 467 z m 371 409 q 352 422 335 427 q 319 432 294 432 q 246 432 205 395 q 164 358 141 296 q 117 233 117 166 q 117 113 139 82 q 160 51 197 51 q 252 51 318 119 z"},"L":{"x_min":0,"x_max":556,"ha":556,"o":"m 173 42 l 278 42 q 371 42 423 52 l 477 188 l 509 188 l 467 0 l -12 0 l -7 26 l 79 39 l 181 616 l 99 629 l 104 655 l 383 655 l 378 629 l 275 616 z"},"3":{"x_min":0,"x_max":500,"ha":500,"o":"m 174 -10 q 131 -10 83 -1 q 34 7 -1 20 l 17 158 l 49 158 l 55 66 q 71 54 107 42 q 144 31 174 31 q 265 31 307 69 q 350 106 350 190 q 350 308 218 318 l 162 322 l 169 362 l 240 366 q 309 371 342 406 q 375 442 375 513 q 375 567 349 594 q 324 621 270 621 q 243 621 215 614 q 186 606 165 595 l 133 515 l 101 515 l 123 641 q 173 654 204 658 q 234 662 273 662 q 363 662 414 625 q 465 587 465 520 q 465 447 423 401 q 380 355 291 343 q 361 333 399 295 q 438 257 438 199 q 438 103 366 46 q 294 -10 174 -10 z"},";":{"x_min":0,"x_max":333,"ha":333,"o":"m 267 410 q 267 386 250 368 q 233 351 208 351 q 182 351 165 368 q 148 386 148 410 q 148 435 166 452 q 183 469 208 469 q 232 469 250 452 q 267 435 267 410 z m 200 21 q 200 -43 160 -88 q 119 -133 46 -154 l 46 -116 q 137 -87 137 -34 q 137 -21 128 -14 q 118 -7 107 0 q 95 7 86 18 q 76 28 76 49 q 76 75 93 89 q 109 103 135 103 q 165 103 183 81 q 200 59 200 21 z"},"J":{"x_min":0,"x_max":444,"ha":444,"o":"m 308 616 l 227 629 l 231 655 l 483 655 l 479 629 l 402 616 l 331 211 q 292 -10 130 -10 q 97 -10 66 -3 q 35 3 15 13 l 36 126 l 67 126 l 70 58 q 76 47 96 40 q 117 32 137 32 q 206 32 222 125 z"},"V":{"x_min":0,"x_max":611,"ha":611,"o":"m 707 655 l 702 629 l 638 616 l 283 -15 l 258 -15 l 114 616 l 52 629 l 57 655 l 298 655 l 293 629 l 210 616 l 317 138 l 579 616 l 505 629 l 510 655 z"},"\"":{"x_min":0,"x_max":420,"ha":420,"o":"m 327 655 l 423 655 l 352 420 l 315 420 z m 139 655 l 235 655 l 164 420 l 127 420 z"},"7":{"x_min":0,"x_max":500,"ha":500,"o":"m 134 500 l 102 500 l 129 655 l 534 655 l 527 617 l 126 0 l 59 0 l 448 580 l 165 580 z"},"S":{"x_min":0,"x_max":500,"ha":500,"o":"m 37 181 l 69 181 l 69 88 q 85 63 124 47 q 163 30 207 30 q 287 30 330 68 q 373 105 373 173 q 373 200 361 219 q 350 239 330 254 q 311 270 286 283 q 261 296 235 310 q 209 323 185 339 q 160 354 141 374 q 121 395 109 421 q 98 447 98 483 q 98 570 157 616 q 216 662 326 662 q 410 662 484 644 l 460 507 l 428 507 l 426 591 q 410 604 382 612 q 354 621 318 621 q 253 621 218 589 q 183 558 183 500 q 183 470 205 444 q 227 419 271 397 q 337 362 366 344 q 396 326 415 306 q 435 285 447 259 q 459 232 459 198 q 459 98 393 44 q 328 -10 204 -10 q 142 -10 93 3 q 44 15 12 36 z"},"}":{"x_min":0,"x_max":400,"ha":400,"o":"m 18 -134 l 21 -111 l 52 -111 q 96 -111 120 -84 q 143 -58 152 -6 l 181 157 q 189 204 220 237 q 251 271 297 281 l 297 282 q 263 290 243 315 q 223 341 223 379 l 225 405 l 253 566 q 257 587 257 604 q 257 637 241 654 q 226 671 190 671 l 160 671 l 164 694 l 230 694 q 335 694 335 592 q 335 573 332 551 l 306 407 q 303 389 303 374 q 303 331 326 312 q 349 293 391 292 l 387 270 q 333 268 302 239 q 271 209 262 154 l 236 10 q 224 -58 185 -96 q 146 -134 84 -134 z"},"Z":{"x_min":0,"x_max":556,"ha":556,"o":"m 443 613 l 345 613 q 224 613 178 603 l 145 500 l 111 500 l 138 655 l 564 655 l 557 613 l 130 41 l 248 41 q 306 41 366 47 q 426 52 448 57 l 499 182 l 533 182 l 487 0 l 12 0 l 21 46 z"},"x":{"x_min":0,"x_max":444,"ha":444,"o":"m 69 41 q 69 27 90 22 l 86 0 l -4 0 q -12 6 -12 21 q -12 35 3 55 q 19 75 55 108 l 188 232 l 104 425 l 52 437 l 56 459 l 177 459 l 248 284 l 308 342 q 339 372 352 389 q 365 406 365 418 q 365 423 360 427 q 356 430 336 437 l 340 459 l 426 459 q 437 451 437 438 q 437 409 369 345 l 265 247 l 358 32 l 415 22 l 411 0 l 286 0 l 205 195 l 121 115 q 94 89 82 73 q 69 56 69 41 z"},")":{"x_min":0,"x_max":333,"ha":333,"o":"m -47 -213 l -40 -172 q 24 -138 67 -87 q 110 -36 139 31 q 167 98 190 218 q 214 337 214 417 q 214 502 187 560 q 160 618 104 653 l 112 694 q 215 632 259 558 q 302 484 302 377 q 302 295 280 195 q 258 95 217 21 q 177 -54 114 -109 q 52 -165 -47 -213 z"},"&":{"x_min":0,"x_max":778,"ha":778,"o":"m 547 538 q 547 499 528 471 q 509 443 476 423 q 443 402 355 370 l 523 174 q 595 271 613 355 l 546 368 l 551 394 l 774 394 l 770 368 l 699 355 q 640 222 558 133 l 640 38 l 719 26 l 714 0 l 546 0 l 491 67 q 434 24 382 7 q 330 -10 268 -10 q 160 -10 101 36 q 42 81 42 166 q 42 211 62 248 q 81 285 122 313 q 162 342 239 369 q 208 413 197 443 q 186 474 186 506 q 186 578 236 622 q 287 665 375 665 q 429 665 467 649 q 505 633 526 604 q 547 575 547 538 z m 263 335 q 197 308 168 266 q 139 225 139 167 q 139 104 176 68 q 212 32 277 32 q 326 32 372 52 q 418 71 457 107 z m 274 523 q 274 492 289 463 q 304 434 329 402 q 392 426 416 442 q 440 458 453 480 q 465 501 465 532 q 465 577 441 602 q 417 626 375 626 q 324 626 299 598 q 274 570 274 523 z"},"_":{"x_min":0,"x_max":500,"ha":500,"o":"m -8 -129 l -8 -79 l 508 -79 l 508 -129 z"},"v":{"x_min":0,"x_max":444,"ha":444,"o":"m 367 394 q 367 412 356 423 q 346 434 334 437 l 338 459 l 431 459 q 444 448 444 428 q 444 385 403 321 l 197 -10 l 161 -10 l 69 425 l 14 437 l 18 459 l 143 459 l 214 102 l 335 300 q 367 351 367 394 z"},"O":{"x_min":0,"x_max":722,"ha":722,"o":"m 601 406 q 601 504 551 563 q 501 623 419 623 q 346 623 285 573 q 225 524 186 432 q 148 339 148 246 q 148 149 197 90 q 246 32 327 32 q 400 32 462 81 q 523 130 562 222 q 601 314 601 406 z m 324 -10 q 245 -10 182 23 q 120 56 85 116 q 50 176 50 251 q 50 369 99 464 q 148 560 232 611 q 317 662 425 662 q 504 662 567 629 q 629 596 664 536 q 699 477 699 401 q 699 286 650 188 q 601 91 516 41 q 432 -10 324 -10 z"},"(":{"x_min":0,"x_max":333,"ha":333,"o":"m 123 64 q 123 -102 232 -172 l 225 -213 q 124 -154 79 -79 q 35 -3 35 104 q 35 190 57 289 q 80 389 120 462 q 160 535 222 590 q 284 645 384 694 l 377 653 q 312 619 268 567 q 224 515 195 445 q 167 375 145 255 q 123 135 123 64 z"},"C":{"x_min":0,"x_max":667,"ha":667,"o":"m 341 -9 q 207 -9 131 61 q 56 131 56 255 q 56 376 106 469 q 157 562 250 612 q 343 662 462 662 q 565 662 676 637 l 654 494 l 623 494 l 623 579 q 592 600 549 612 q 506 623 459 623 q 371 623 301 576 q 231 529 192 442 q 153 356 153 246 q 153 141 204 86 q 255 31 350 31 q 405 31 458 47 q 512 64 545 90 l 580 188 l 612 188 l 582 34 q 526 14 461 2 q 396 -9 341 -9 z"},"W":{"x_min":0,"x_max":833,"ha":833,"o":"m 554 -15 l 523 -15 l 452 423 l 248 -15 l 216 -15 l 121 616 l 66 629 l 70 655 l 298 655 l 294 629 l 215 616 l 284 159 l 492 609 l 514 609 l 588 158 l 792 616 l 712 629 l 716 655 l 909 655 l 904 629 l 845 616 z"},"A":{"x_min":0,"x_max":611,"ha":611,"o":"m 129 26 l 124 0 l -55 0 l -50 26 l 5 39 l 338 660 l 431 660 l 553 39 l 614 26 l 609 0 l 377 0 l 382 26 l 452 39 l 421 228 l 163 228 l 63 39 z m 353 590 l 185 272 l 413 272 z"},"f":{"x_min":0,"x_max":278,"ha":278,"o":"m 92 -213 l 11 -213 l 121 418 l 42 418 l 46 442 l 129 461 l 135 493 q 154 602 200 653 q 247 704 325 704 q 363 704 393 695 l 376 599 l 352 599 l 343 655 q 329 665 302 665 q 272 665 255 639 q 238 614 223 535 l 209 459 l 311 459 l 304 418 l 202 418 z"},"Q":{"x_min":0,"x_max":722,"ha":722,"o":"m 55 251 q 55 369 104 464 q 153 560 237 611 q 322 662 430 662 q 509 662 572 629 q 634 596 669 536 q 704 477 704 401 q 704 305 669 219 q 634 134 572 78 q 509 21 426 1 q 467 -60 486 -78 q 504 -97 524 -105 q 544 -114 568 -114 l 609 -112 l 603 -144 q 591 -149 559 -156 q 527 -162 504 -162 q 454 -162 420 -136 q 387 -111 339 -33 l 325 -10 q 247 -9 185 24 q 123 58 89 117 q 55 176 55 251 z m 606 406 q 606 504 556 563 q 506 623 424 623 q 351 623 290 573 q 229 524 191 432 q 153 339 153 246 q 153 149 202 90 q 251 32 332 32 q 405 32 467 81 q 528 130 567 222 q 606 314 606 406 z"},"w":{"x_min":0,"x_max":667,"ha":667,"o":"m 439 -10 l 407 -10 l 347 292 l 191 -10 l 157 -10 l 74 425 l 24 437 l 28 459 l 147 459 l 211 114 l 362 407 l 399 407 l 458 112 l 555 302 q 583 357 583 394 q 583 412 572 423 q 562 434 550 437 l 554 459 l 647 459 q 660 448 660 428 q 660 395 619 321 z"},"-":{"x_min":0,"x_max":333,"ha":333,"o":"m 37 198 l 37 273 l 297 273 l 297 198 z"},"E":{"x_min":0,"x_max":611,"ha":611,"o":"m 181 616 l 99 629 l 104 655 l 595 655 l 567 498 l 535 498 l 538 604 q 484 611 381 611 l 274 611 l 229 355 l 405 355 l 435 433 l 466 433 l 430 232 l 399 232 l 398 311 l 221 311 l 174 44 l 303 44 q 428 44 469 52 l 519 173 l 551 173 l 511 0 l -12 0 l -7 26 l 79 39 z"},"s":{"x_min":0,"x_max":389,"ha":389,"o":"m 338 135 q 338 61 291 26 q 244 -10 149 -10 q 82 -10 12 21 l 32 131 l 54 131 l 62 64 q 75 50 98 40 q 122 29 151 29 q 258 29 258 116 q 258 145 235 167 q 212 190 161 215 q 112 239 88 268 q 64 297 64 336 q 64 400 107 436 q 151 471 228 471 q 283 471 359 454 l 341 352 l 318 352 l 311 405 q 280 432 230 432 q 190 432 166 414 q 142 396 142 357 q 142 331 163 311 q 183 291 240 261 q 291 235 314 205 q 338 174 338 135 z"},">":{"x_min":0,"x_max":675,"ha":675,"o":"m 113 91 l 113 141 l 508 332 l 113 523 l 113 573 l 579 344 l 579 320 z"},"l":{"x_min":0,"x_max":278,"ha":278,"o":"m 140 34 l 217 22 l 213 0 l 53 0 l 169 660 l 106 672 l 110 694 l 256 694 z"},"8":{"x_min":0,"x_max":500,"ha":500,"o":"m 489 533 q 489 464 455 414 q 420 364 363 347 q 405 333 429 299 q 453 265 453 215 q 453 -10 208 -10 q 113 -10 67 30 q 21 70 21 143 q 21 302 171 347 q 140 361 119 390 q 99 419 99 463 q 99 563 156 614 q 212 665 320 665 q 489 665 489 533 z m 214 29 q 291 29 329 73 q 366 117 366 218 q 366 325 261 325 q 107 325 107 141 q 107 29 214 29 z m 269 368 q 333 368 367 410 q 402 453 402 533 q 402 581 381 603 q 359 626 314 626 q 250 626 217 586 q 185 546 185 461 q 185 416 206 392 q 227 368 269 368 z"},"\\":{"x_min":0,"x_max":278,"ha":278,"o":"m 77 659 l 125 659 l 229 -10 l 180 -10 z"},"e":{"x_min":0,"x_max":444,"ha":444,"o":"m 421 371 q 421 305 339 258 q 257 211 119 202 l 117 166 q 117 104 143 73 q 169 41 221 41 q 265 41 302 56 q 339 71 371 90 l 385 69 q 340 31 290 11 q 240 -10 195 -10 q 116 -10 73 34 q 31 79 31 161 q 31 243 65 313 q 100 384 161 427 q 222 471 289 471 q 349 471 385 444 q 421 416 421 371 z m 123 232 q 220 240 278 278 q 336 316 336 371 q 336 398 321 416 q 306 434 278 434 q 244 434 211 406 q 179 378 156 331 q 132 284 123 232 z"},"b":{"x_min":0,"x_max":500,"ha":500,"o":"m 149 660 l 84 672 l 88 694 l 234 694 l 198 479 q 190 423 179 384 q 218 424 260 448 q 301 471 335 471 q 396 471 433 427 q 470 384 470 308 q 470 224 433 150 q 397 75 333 33 q 269 -10 193 -10 q 150 -10 109 1 q 68 12 37 31 z m 121 52 q 149 29 200 29 q 250 29 292 66 q 334 103 358 165 q 382 227 382 295 q 382 350 360 380 q 337 410 299 410 q 270 410 237 391 q 203 372 173 342 z"},"%":{"x_min":0,"x_max":833,"ha":833,"o":"m 155 -10 l 102 -10 l 684 665 l 738 665 z m 187 304 q 57 304 57 432 q 57 495 80 552 q 104 608 146 637 q 189 665 253 665 q 385 665 385 539 q 385 516 380 486 q 347 304 187 304 z m 310 549 q 310 588 295 608 q 280 629 244 629 q 206 629 182 603 q 158 577 144 518 q 130 459 130 417 q 130 380 145 360 q 159 340 193 340 q 230 340 256 366 q 281 392 296 448 q 310 503 310 549 z m 578 -13 q 448 -13 448 114 q 448 137 453 169 q 485 348 645 348 q 776 348 776 221 q 776 160 752 102 q 729 44 686 16 q 643 -13 578 -13 z m 702 231 q 702 271 686 291 q 671 312 635 312 q 597 312 573 286 q 549 260 536 201 q 522 142 522 100 q 522 63 536 43 q 550 23 584 23 q 622 23 647 49 q 673 75 687 131 q 702 186 702 231 z"},"m":{"x_min":0,"x_max":722,"ha":722,"o":"m 426 364 q 459 412 501 441 q 543 471 582 471 q 623 471 647 445 q 670 419 670 370 q 670 359 668 342 q 666 324 616 34 l 680 22 l 676 0 l 529 0 l 579 284 q 590 343 590 365 q 590 387 580 401 q 570 414 548 414 q 526 414 497 394 q 467 373 443 341 q 418 309 414 281 l 365 0 l 284 0 l 334 284 q 346 348 346 365 q 346 387 335 401 q 325 414 302 414 q 280 414 249 392 q 218 371 194 340 q 170 309 166 281 l 117 0 l 36 0 l 111 425 l 53 437 l 57 459 l 193 459 l 179 364 q 213 413 256 442 q 298 471 336 471 q 379 471 403 444 q 426 417 426 364 z"},"#":{"x_min":0,"x_max":500,"ha":500,"o":"m 480 256 l 472 206 l 345 206 l 270 0 l 219 0 l 294 206 l 143 206 l 68 0 l 17 0 l 92 206 l 8 206 l 17 256 l 110 256 l 165 406 l 43 406 l 52 456 l 183 456 l 255 655 l 306 655 l 234 456 l 385 456 l 457 655 l 508 655 l 436 456 l 516 456 l 507 406 l 418 406 l 364 256 z m 162 256 l 312 256 l 367 406 l 216 406 z"},",":{"x_min":0,"x_max":250,"ha":250,"o":"m 187 21 q 187 -43 146 -88 q 106 -133 33 -154 l 33 -116 q 124 -87 124 -34 q 124 -21 115 -14 q 105 -7 94 0 q 82 7 73 18 q 63 28 63 49 q 63 75 80 89 q 96 103 122 103 q 152 103 169 81 q 187 59 187 21 z"},"n":{"x_min":0,"x_max":500,"ha":500,"o":"m 369 365 q 369 387 357 401 q 345 415 320 415 q 284 415 241 384 q 198 353 170 308 l 117 0 l 36 0 l 110 425 l 53 438 l 57 459 l 192 459 l 179 366 q 220 418 264 445 q 308 471 351 471 q 400 471 425 445 q 450 418 450 368 q 450 361 448 347 q 446 333 395 34 l 458 22 l 455 0 l 308 0 l 357 284 q 369 346 369 365 z"},"h":{"x_min":0,"x_max":500,"ha":500,"o":"m 152 660 l 94 672 l 98 694 l 239 694 l 187 403 l 179 366 q 218 417 263 444 q 308 471 351 471 q 400 471 425 445 q 450 418 450 368 q 450 361 448 347 q 446 333 395 34 l 458 22 l 455 0 l 308 0 l 357 284 q 369 346 369 365 q 369 387 357 401 q 345 415 320 415 q 283 415 241 384 q 198 354 171 309 l 117 0 l 36 0 z"},"z":{"x_min":0,"x_max":389,"ha":389,"o":"m -11 0 l -7 22 l 269 420 l 196 420 q 168 420 143 415 q 117 411 105 403 l 78 337 l 55 337 l 77 459 l 376 459 l 372 435 l 98 39 l 194 39 q 221 39 247 45 q 273 51 290 62 l 327 134 l 350 134 l 315 0 z"},"B":{"x_min":0,"x_max":611,"ha":611,"o":"m 312 368 q 407 368 447 400 q 487 432 487 511 q 487 562 456 586 q 424 611 351 611 l 274 611 l 231 368 z m 300 41 q 394 41 438 77 q 482 114 482 198 q 482 265 439 294 q 396 324 314 324 l 223 324 l 174 44 q 249 41 300 41 z m 9 0 l 14 26 l 79 39 l 181 616 l 99 629 l 104 655 l 373 655 q 589 655 589 517 q 589 448 546 403 q 502 358 425 348 q 501 342 542 303 q 584 264 584 200 q 584 95 513 46 q 442 -3 300 -3 l 113 0 z"},"K":{"x_min":0,"x_max":667,"ha":667,"o":"m 710 655 l 705 629 l 629 616 l 357 394 l 576 39 l 641 26 l 636 0 l 486 0 l 286 335 l 216 278 l 173 39 l 265 26 l 260 0 l -12 0 l -7 26 l 79 39 l 181 616 l 99 629 l 104 655 l 366 655 l 361 629 l 275 616 l 227 344 l 558 616 l 500 629 l 505 655 z"},"R":{"x_min":0,"x_max":611,"ha":611,"o":"m 217 287 l 173 39 l 260 26 l 255 0 l -5 0 l 0 26 l 79 39 l 181 616 l 99 629 l 104 655 l 363 655 q 470 655 526 614 q 583 574 583 496 q 583 342 412 301 l 522 39 l 594 26 l 589 0 l 439 0 l 319 287 z m 301 331 q 390 331 438 373 q 486 416 486 493 q 486 611 346 611 l 274 611 l 225 331 z"},"T":{"x_min":0,"x_max":556,"ha":556,"o":"m 86 0 l 91 26 l 197 39 l 298 613 l 273 613 q 176 613 129 603 l 98 501 l 65 501 l 93 655 l 615 655 l 588 501 l 555 501 l 560 603 q 516 612 416 612 l 392 612 l 291 39 l 393 26 l 388 0 z"},"P":{"x_min":0,"x_max":611,"ha":611,"o":"m 299 301 q 488 301 488 475 q 488 545 453 578 q 417 611 346 611 l 274 611 l 219 301 z m 211 257 l 173 39 l 280 26 l 275 0 l -5 0 l 0 26 l 79 39 l 181 616 l 99 629 l 104 655 l 366 655 q 471 655 528 611 q 585 567 585 481 q 585 372 514 314 q 442 257 310 257 z"},"|":{"x_min":0,"x_max":275,"ha":275,"o":"m 130 -216 l 130 694 l 180 694 l 180 -216 z"},"t":{"x_min":0,"x_max":278,"ha":278,"o":"m 129 85 q 129 63 140 52 q 151 41 168 41 q 204 41 242 56 l 252 33 q 192 -10 131 -10 q 92 -10 70 14 q 48 37 48 79 q 48 93 51 113 q 53 132 104 418 l 44 418 l 48 440 l 113 459 l 180 563 l 211 563 l 193 459 l 298 459 l 290 418 l 185 418 l 138 150 q 129 105 129 85 z"},"M":{"x_min":0,"x_max":833,"ha":833,"o":"m 352 0 l 335 0 l 222 563 l 130 39 l 216 26 l 211 0 l -12 0 l -7 26 l 79 39 l 181 616 l 99 629 l 104 655 l 290 655 l 391 155 l 683 655 l 879 655 l 874 629 l 788 616 l 686 39 l 768 26 l 763 0 l 498 0 l 502 26 l 592 39 l 685 563 z"},"g":{"x_min":0,"x_max":500,"ha":500,"o":"m 204 51 q 231 51 265 69 q 298 87 330 119 l 384 420 q 372 423 363 426 q 354 428 344 430 q 335 431 325 432 q 315 433 302 433 q 253 433 211 396 q 169 359 145 297 q 121 235 121 166 q 121 113 143 82 q 165 51 204 51 z m 323 78 q 288 40 245 15 q 202 -10 167 -10 q 105 -10 69 33 q 34 77 34 153 q 34 238 71 312 q 108 385 172 428 q 236 471 311 471 q 340 471 387 465 q 434 459 471 451 l 389 -17 q 371 -120 318 -167 q 266 -213 163 -213 q 120 -213 74 -203 q 28 -193 0 -178 l 9 -67 l 31 -67 l 49 -128 q 88 -167 163 -167 q 222 -167 257 -136 q 292 -105 304 -37 z"},"j":{"x_min":0,"x_max":278,"ha":278,"o":"m -29 -213 q -68 -213 -107 -198 l -91 -107 l -68 -107 l -61 -161 q -47 -174 -26 -174 q 6 -174 24 -143 q 42 -111 54 -44 l 137 425 l 70 437 l 74 459 l 224 459 l 139 -19 q 122 -118 80 -165 q 39 -213 -29 -213 z m 253 609 q 253 587 238 572 q 222 556 200 556 q 179 556 163 572 q 147 587 147 609 q 147 631 163 646 q 179 662 200 662 q 222 662 238 646 q 253 631 253 609 z"},"i":{"x_min":0,"x_max":278,"ha":278,"o":"m 143 34 l 219 22 l 215 0 l 56 0 l 130 425 l 67 437 l 71 459 l 217 459 z m 248 609 q 248 587 232 572 q 216 556 194 556 q 173 556 157 572 q 142 587 142 609 q 142 631 157 646 q 173 662 194 662 q 216 662 232 646 q 248 631 248 609 z"},"y":{"x_min":0,"x_max":444,"ha":444,"o":"m 25 459 l 150 459 l 221 102 l 336 300 q 367 354 367 394 q 367 412 357 423 q 347 434 335 437 l 339 459 l 432 459 q 444 448 444 428 q 444 390 404 321 l 210 -5 q 155 -100 122 -139 q 90 -179 58 -197 q 26 -216 -11 -216 q -50 -216 -83 -207 l -65 -108 l -43 -108 l -36 -155 q -23 -166 4 -166 q 70 -166 144 -34 l 166 6 l 76 425 l 21 437 z"},"@":{"x_min":0,"x_max":920,"ha":920,"o":"m 717 -90 q 648 -144 578 -167 q 508 -190 427 -190 q 317 -190 234 -144 q 150 -98 104 -14 q 59 70 59 177 q 59 315 120 428 q 181 540 289 603 q 397 666 529 666 q 693 666 783 587 q 874 509 874 367 q 874 274 826 193 q 779 111 698 62 q 618 12 530 12 q 499 12 499 37 q 499 62 502 98 q 460 56 419 34 q 378 12 345 12 q 310 12 291 39 q 271 65 271 110 q 271 168 286 223 q 301 279 328 322 q 355 365 396 395 q 437 425 476 436 q 515 447 579 447 l 596 447 q 615 447 638 444 l 583 185 q 571 131 571 100 q 571 82 580 76 q 589 70 607 70 q 664 70 711 110 q 758 149 785 220 q 812 291 812 366 q 812 489 736 558 q 660 626 526 626 q 413 626 322 571 q 230 515 178 410 q 125 306 125 178 q 125 83 163 9 q 201 -65 273 -107 q 345 -149 442 -149 q 515 -149 575 -130 q 636 -111 701 -65 z m 562 394 l 538 396 q 474 396 431 374 q 389 353 363 288 q 337 224 337 151 q 337 78 376 78 q 404 78 440 93 q 476 108 505 134 z"},".":{"x_min":0,"x_max":250,"ha":250,"o":"m 160 45 q 160 21 143 3 q 126 -14 101 -14 q 75 -14 58 3 q 42 21 42 45 q 42 70 59 87 q 76 104 101 104 q 125 104 143 87 q 160 70 160 45 z"},"p":{"x_min":0,"x_max":500,"ha":500,"o":"m 114 1 l 108 -43 l 85 -178 l 163 -190 l 159 -213 l -59 -213 l -55 -190 l 4 -178 l 111 425 l 61 437 l 65 459 l 194 459 l 185 385 q 271 471 339 471 q 398 471 434 428 q 470 384 470 308 q 470 222 433 148 q 396 74 333 32 q 271 -10 197 -10 q 174 -10 150 -7 q 126 -3 114 1 z m 125 52 q 156 29 208 29 q 256 29 295 64 q 334 100 358 164 q 382 229 382 295 q 382 350 361 380 q 339 410 302 410 q 276 410 241 391 q 206 372 179 342 z"},"X":{"x_min":0,"x_max":611,"ha":611,"o":"m 367 368 l 483 39 l 556 26 l 551 0 l 300 0 l 305 26 l 385 39 l 300 287 l 106 39 l 185 26 l 180 0 l -33 0 l -28 26 l 45 39 l 280 335 l 180 616 l 108 629 l 113 655 l 354 655 l 349 629 l 279 616 l 347 417 l 503 616 l 438 629 l 443 655 l 643 655 l 638 629 l 564 616 z"},"*":{"x_min":0,"x_max":500,"ha":500,"o":"m 96 520 l 127 590 l 281 495 l 260 655 l 336 655 l 313 495 l 468 588 l 500 519 l 337 471 l 500 424 l 468 355 l 313 447 l 336 288 l 260 288 l 281 448 l 127 353 l 96 423 l 256 471 z"},"Y":{"x_min":0,"x_max":556,"ha":556,"o":"m 297 39 l 399 26 l 395 0 l 92 0 l 97 26 l 203 39 l 241 255 l 129 616 l 57 629 l 62 655 l 329 655 l 324 629 l 229 616 l 321 310 l 513 616 l 427 629 l 432 655 l 645 655 l 640 629 l 566 616 l 336 258 z"},"c":{"x_min":0,"x_max":444,"ha":444,"o":"m 378 69 q 338 33 289 11 q 240 -10 195 -10 q 117 -10 74 36 q 31 81 31 161 q 31 246 65 316 q 99 386 162 429 q 226 471 295 471 q 330 471 369 464 q 408 457 433 446 l 411 318 l 384 318 l 376 403 q 346 434 294 434 q 248 434 207 399 q 166 364 142 302 q 117 240 117 166 q 117 41 218 41 q 288 41 363 90 z"},"!":{"x_min":0,"x_max":333,"ha":333,"o":"m 195 45 q 195 21 178 3 q 162 -14 136 -14 q 111 -14 94 3 q 77 21 77 45 q 77 70 94 87 q 111 104 136 104 q 161 104 178 87 q 195 70 195 45 z m 183 655 l 289 655 l 177 190 l 131 190 z"},"/":{"x_min":0,"x_max":278,"ha":278,"o":"m 8 -10 l -46 -10 l 301 659 l 354 659 z"},"[":{"x_min":0,"x_max":389,"ha":389,"o":"m 58 -134 l 204 694 l 426 694 l 422 671 l 273 651 l 143 -91 l 284 -111 l 280 -134 z"},"6":{"x_min":0,"x_max":500,"ha":500,"o":"m 233 -10 q 142 -10 91 50 q 41 110 41 218 q 41 339 80 442 q 120 544 193 603 q 265 662 353 662 q 420 662 495 636 l 475 523 l 443 523 l 438 592 q 394 621 350 621 q 273 621 218 548 q 163 475 139 345 q 176 367 218 379 q 260 392 295 392 q 375 392 419 353 q 463 313 463 244 q 463 169 436 112 q 408 55 356 22 q 304 -10 233 -10 z m 127 201 q 127 119 154 74 q 182 29 234 29 q 300 29 336 85 q 372 141 372 239 q 372 292 348 319 q 325 345 274 345 q 218 345 135 315 q 127 259 127 201 z"},"r":{"x_min":0,"x_max":389,"ha":389,"o":"m 354 471 q 378 471 392 467 l 371 347 l 350 347 l 331 409 q 292 409 250 379 q 208 350 174 301 l 122 0 l 41 0 l 115 425 l 58 437 l 62 459 l 197 459 l 182 355 q 218 411 263 441 q 309 471 354 471 z"},"2":{"x_min":0,"x_max":500,"ha":500,"o":"m 401 0 l 0 0 l 13 72 l 117 147 q 224 223 281 278 q 338 332 366 392 q 394 452 394 521 q 394 573 365 597 q 337 621 282 621 q 255 621 226 614 q 196 606 176 595 l 145 515 l 113 515 l 135 641 q 228 662 290 662 q 380 662 429 625 q 478 588 478 521 q 478 457 448 398 q 417 339 356 282 q 294 226 185 149 l 81 75 l 414 75 z"},"{":{"x_min":0,"x_max":400,"ha":400,"o":"m 179 -134 q 126 -134 100 -106 q 73 -79 73 -30 q 73 -13 77 10 l 103 154 q 106 171 106 188 q 106 228 85 248 q 64 268 18 270 l 22 292 q 127 294 147 407 l 172 551 q 185 620 223 657 q 261 694 325 694 l 391 694 l 387 671 l 357 671 q 312 671 289 644 q 266 618 256 566 l 228 405 q 219 359 188 325 q 157 292 112 282 l 112 281 q 146 272 167 248 q 187 223 187 185 q 187 169 184 157 l 155 -6 q 151 -26 151 -43 q 151 -111 219 -111 l 249 -111 l 245 -134 z"},"9":{"x_min":0,"x_max":500,"ha":500,"o":"m 292 662 q 384 662 434 603 q 484 544 484 435 q 484 310 443 207 q 403 104 334 47 q 266 -10 184 -10 q 95 -10 29 17 l 48 125 l 81 125 l 86 56 q 103 46 128 39 q 154 31 182 31 q 260 31 313 105 q 367 180 386 308 q 346 285 305 272 q 263 260 229 260 q 151 260 106 304 q 62 348 62 425 q 62 496 89 550 q 117 604 169 633 q 222 662 292 662 z m 397 452 q 397 534 370 579 q 343 624 291 624 q 224 624 188 572 q 152 520 152 428 q 152 366 179 337 q 207 307 254 307 q 321 307 391 337 q 397 393 397 452 z"}," ":{"x_min":0,"x_max":250,"ha":250,"o":""},"I":{"x_min":0,"x_max":333,"ha":333,"o":"m 180 39 l 261 26 l 257 0 l -4 0 l 0 26 l 86 39 l 187 616 l 106 629 l 110 655 l 372 655 l 368 629 l 281 616 z"},"H":{"x_min":0,"x_max":722,"ha":722,"o":"m -11 0 l -7 26 l 79 39 l 180 616 l 99 629 l 103 655 l 365 655 l 361 629 l 274 616 l 229 359 l 537 359 l 582 616 l 501 629 l 505 655 l 767 655 l 763 629 l 676 616 l 575 39 l 656 26 l 652 0 l 390 0 l 394 26 l 481 39 l 529 315 l 221 315 l 173 39 l 254 26 l 250 0 z"},"4":{"x_min":0,"x_max":500,"ha":500,"o":"m 368 150 l 341 0 l 262 0 l 289 150 l 2 150 l 12 209 l 379 658 l 457 658 l 379 214 l 478 214 l 467 150 z m 367 576 l 73 214 l 300 214 l 346 478 z"},"~":{"x_min":0,"x_max":541,"ha":541,"o":"m 394 245 q 342 245 274 304 q 238 335 215 349 q 191 363 172 363 q 135 363 116 336 q 97 310 90 245 l 41 245 q 50 336 82 375 q 115 413 172 413 q 200 413 229 399 q 258 385 294 354 q 336 319 357 307 q 377 295 394 295 q 428 295 447 321 q 466 346 475 413 l 525 413 q 517 350 501 316 q 486 282 460 264 q 434 245 394 245 z"},"D":{"x_min":0,"x_max":722,"ha":722,"o":"m 604 383 q 604 611 353 611 l 274 611 l 174 46 q 252 42 303 42 q 447 42 526 131 q 604 219 604 383 z m 383 655 q 541 655 624 586 q 707 517 707 387 q 707 270 658 181 q 609 92 518 45 q 427 -2 307 -2 l 72 0 l -11 0 l -7 26 l 79 39 l 181 616 l 99 629 l 104 655 z"},"^":{"x_min":0,"x_max":422,"ha":422,"o":"m 244 655 l 268 655 l 477 190 l 427 190 l 256 585 l 85 190 l 35 190 z"},"0":{"x_min":0,"x_max":500,"ha":500,"o":"m 205 -10 q 39 -10 39 195 q 39 310 74 428 q 109 547 170 606 q 231 665 318 665 q 487 665 487 464 q 487 354 452 231 q 417 109 355 50 q 294 -10 205 -10 z m 402 484 q 402 626 310 626 q 268 626 236 598 q 205 569 182 512 q 159 456 140 357 q 122 258 122 168 q 122 100 145 64 q 168 29 210 29 q 269 29 308 82 q 347 135 374 261 q 402 388 402 484 z"},"F":{"x_min":0,"x_max":611,"ha":611,"o":"m 218 294 l 173 39 l 280 26 l 275 0 l -5 0 l 0 26 l 79 39 l 181 616 l 99 629 l 104 655 l 619 655 l 591 498 l 559 498 l 562 604 q 509 611 405 611 l 274 611 l 226 338 l 443 338 l 472 416 l 501 416 l 466 215 l 437 215 l 435 294 z"},"`":{"x_min":0,"x_max":333,"ha":333,"o":"m 298 546 l 148 677 l 151 695 l 250 695 l 327 562 l 325 546 z"},"k":{"x_min":0,"x_max":444,"ha":444,"o":"m 146 660 l 80 672 l 84 694 l 233 694 l 149 221 l 358 424 l 312 437 l 316 459 l 458 459 l 455 437 l 415 426 l 271 289 l 390 33 l 438 22 l 434 0 l 319 0 l 212 234 l 140 166 l 110 0 l 29 0 z"},"u":{"x_min":0,"x_max":500,"ha":500,"o":"m 131 94 q 131 72 143 59 q 154 45 180 45 q 216 45 259 75 q 301 106 329 150 l 383 459 l 464 459 l 389 34 l 447 22 l 443 0 l 307 0 l 320 94 q 280 42 236 15 q 192 -12 149 -12 q 100 -12 75 15 q 50 42 50 91 q 50 99 52 117 q 55 136 105 425 l 51 437 l 55 459 l 192 459 l 142 175 q 131 114 131 94 z"},"]":{"x_min":0,"x_max":389,"ha":389,"o":"m -24 -134 l -20 -111 l 128 -91 l 259 651 l 118 671 l 122 694 l 344 694 l 198 -134 z"},"U":{"x_min":0,"x_max":722,"ha":722,"o":"m 634 616 l 549 629 l 553 655 l 776 655 l 772 629 l 686 616 l 617 225 q 597 113 522 52 q 447 -10 332 -10 q 218 -10 158 36 q 99 83 99 170 q 99 197 104 221 l 173 616 l 92 629 l 96 655 l 358 655 l 354 629 l 267 616 l 198 223 q 193 197 193 173 q 193 45 340 45 q 433 45 492 91 q 551 138 565 221 z"},"o":{"x_min":0,"x_max":500,"ha":500,"o":"m 116 166 q 116 100 141 65 q 167 30 213 30 q 257 30 298 66 q 338 102 361 163 q 385 225 385 296 q 385 363 359 398 q 333 433 286 433 q 241 433 201 397 q 162 362 139 300 q 116 238 116 166 z m 208 -10 q 127 -10 79 42 q 30 94 30 183 q 30 261 63 328 q 97 395 157 433 q 217 471 292 471 q 373 471 421 419 q 470 367 470 279 q 470 200 437 133 q 403 66 343 28 q 283 -10 208 -10 z"},"N":{"x_min":0,"x_max":667,"ha":667,"o":"m 571 616 l 485 629 l 490 655 l 713 655 l 708 629 l 623 616 l 514 0 l 466 0 l 231 589 l 134 39 l 220 26 l 215 0 l -7 0 l -2 26 l 83 39 l 185 616 l 103 629 l 108 655 l 297 655 l 492 164 z"},"+":{"x_min":0,"x_max":675,"ha":675,"o":"m 371 307 l 371 99 l 321 99 l 321 307 l 114 307 l 114 357 l 321 357 l 321 565 l 371 565 l 371 357 l 579 357 l 579 307 z"},"G":{"x_min":0,"x_max":722,"ha":722,"o":"m 337 -9 q 204 -9 129 61 q 55 131 55 255 q 55 378 106 470 q 157 562 250 612 q 342 662 462 662 q 575 662 681 633 l 656 492 l 623 492 l 625 573 q 562 623 459 623 q 373 623 303 576 q 232 530 193 444 q 153 358 153 246 q 153 144 203 87 q 253 30 343 30 q 387 30 431 43 q 475 55 505 75 l 536 247 l 455 260 l 459 286 l 701 286 l 696 260 l 630 247 l 593 42 q 520 14 460 2 q 400 -9 337 -9 z"},"q":{"x_min":0,"x_max":500,"ha":500,"o":"m 205 52 q 240 52 274 62 q 308 72 331 87 l 390 420 q 340 434 290 434 q 242 434 202 398 q 163 363 141 301 q 119 238 119 167 q 119 111 141 82 q 163 52 205 52 z m 328 52 q 290 24 249 7 q 207 -10 171 -10 q 104 -10 69 32 q 33 73 33 155 q 33 245 68 318 q 104 391 167 431 q 231 471 312 471 q 346 471 396 465 q 446 458 477 451 l 363 -178 l 422 -190 l 418 -213 l 276 -213 l 310 -27 q 317 16 328 52 z"},"d":{"x_min":0,"x_max":500,"ha":500,"o":"m 382 459 q 384 483 416 660 l 340 672 l 344 694 l 502 694 l 385 34 l 440 22 l 437 0 l 297 0 l 312 76 q 229 -10 161 -10 q 101 -10 65 35 q 30 80 30 155 q 30 238 66 312 q 102 385 165 428 q 227 471 302 471 q 348 471 382 459 z m 371 409 q 354 420 336 426 q 318 433 292 433 q 246 433 206 396 q 166 360 142 297 q 117 233 117 166 q 117 113 139 82 q 160 51 197 51 q 224 51 256 69 q 288 86 318 119 z"},"1":{"x_min":0,"x_max":500,"ha":500,"o":"m 261 39 l 393 26 l 388 0 l 36 0 l 41 26 l 177 39 l 271 573 l 130 526 l 135 552 l 345 660 l 371 660 z"},"5":{"x_min":0,"x_max":500,"ha":500,"o":"m 239 383 q 339 383 391 341 q 442 299 442 222 q 442 110 373 50 q 304 -10 174 -10 q 89 -10 16 11 l 34 149 l 66 149 l 72 57 q 90 46 121 38 q 152 31 181 31 q 266 31 310 76 q 353 122 353 217 q 353 342 226 342 q 173 342 128 330 l 81 330 l 138 655 l 470 655 l 457 580 l 169 580 l 132 371 q 188 383 239 383 z"}}}
